<?xml version="1.0" standalone="no"?>
<!DOCTYPE svg PUBLIC "-//W3C//DTD SVG 20010904//EN"
 "http://www.w3.org/TR/2001/REC-SVG-20010904/DTD/svg10.dtd">
<svg version="1.0" xmlns="http://www.w3.org/2000/svg"
 width="840.000000pt" height="880.000000pt" viewBox="0 0 840.000000 880.000000"
 preserveAspectRatio="xMidYMid meet">
<metadata>
Created by potrace 1.15, written by Peter Selinger 2001-2017
</metadata>
<g transform="translate(0.000000,880.000000) scale(0.100000,-0.100000)"
fill="#000000" stroke="none">
<path fill="#FFFFFF" d="M7869 8385 c-59 -22 -7594 -5050 -7618 -5083 -74 -104 -64 -240 23
-326 38 -38 117 -71 1041 -441 l999 -400 468 -820 c333 -583 478 -829 504
-852 94 -84 243 -81 333 6 22 21 146 217 300 474 144 240 267 437 273 437 6 0
558 -219 1227 -486 778 -312 1233 -489 1262 -492 93 -9 198 48 240 131 17 32
164 896 650 3819 346 2079 629 3791 629 3807 0 52 -32 124 -75 166 -67 67
-171 92 -256 60z m-553 -1187 c-78 -123 -664 -1035 -1301 -2028 -637 -993
-1280 -1994 -1428 -2225 -872 -1361 -1141 -1775 -1148 -1768 -8 9 -679 1182
-686 1200 -4 10 481 538 898 978 75 79 399 426 1224 1310 313 336 631 675 706
755 75 80 462 494 859 920 753 807 1010 1080 1016 1080 2 0 -61 -100 -140
-222z m-627 -225 c-36 -38 -252 -268 -480 -513 -568 -608 -1791 -1918 -2139
-2290 -710 -760 -1409 -1509 -1453 -1557 l-49 -53 -41 24 c-23 13 -378 158
-790 322 -444 177 -743 302 -738 307 18 18 5746 3834 5750 3831 2 -2 -25 -34
-60 -71z m314 -2988 c-272 -1633 -498 -2973 -502 -2977 -3 -3 -494 189 -1090
427 -733 294 -1101 436 -1137 441 -30 3 -54 8 -54 11 0 3 2007 3117 3005 4663
84 129 178 275 209 324 31 48 59 87 60 85 2 -2 -219 -1340 -491 -2974z"/>
</g>
</svg>
