<?xml version="1.0" standalone="no"?>
<!DOCTYPE svg PUBLIC "-//W3C//DTD SVG 20010904//EN"
 "http://www.w3.org/TR/2001/REC-SVG-20010904/DTD/svg10.dtd">
<svg version="1.0" xmlns="http://www.w3.org/2000/svg"
 width="512.000000pt" height="512.000000pt" viewBox="0 0 512.000000 512.000000"
 preserveAspectRatio="xMidYMid meet">
<metadata>
Created by potrace 1.15, written by Peter Selinger 2001-2017
</metadata>
<g transform="translate(0.000000,512.000000) scale(0.100000,-0.100000)"
fill="darkgray" stroke="none">
<path d="M3505 4024 c-27 -2 -131 -8 -230 -14 -99 -6 -403 -31 -675 -55 -272
-24 -553 -49 -625 -54 -592 -47 -1217 -38 -1758 24 -113 14 -131 14 -157 0
-65 -33 -60 73 -60 -1381 0 -1318 0 -1321 21 -1347 24 -31 60 -42 194 -56 285
-31 484 -43 831 -48 507 -8 759 6 1634 87 643 59 744 64 1245 64 475 0 618 -7
974 -49 104 -12 128 -12 156 -1 70 30 65 -84 65 1382 0 1318 0 1321 -21 1347
-31 40 -72 47 -469 83 -163 15 -988 28 -1125 18z m1085 -238 c91 -8 198 -18
238 -22 l72 -7 0 -1168 c0 -643 -3 -1169 -7 -1169 -5 0 -75 7 -158 15 -245 24
-502 35 -815 35 -417 0 -603 -11 -1370 -80 -787 -71 -843 -74 -1350 -74 -442
0 -532 3 -862 35 l-118 12 0 1170 0 1169 53 -6 c317 -39 994 -57 1382 -37 250
13 536 36 1025 81 273 25 619 51 840 64 156 9 914 -4 1070 -18z"/>
<path d="M3903 3603 c-57 -12 -98 -95 -71 -149 30 -63 40 -65 329 -74 145 -5
307 -12 359 -15 112 -7 136 1 164 59 17 36 18 43 5 80 -23 64 -48 73 -244 85
-211 12 -513 20 -542 14z"/>
<path d="M2391 3374 c-32 -23 -51 -74 -51 -137 l0 -54 -42 -12 c-58 -18 -149
-111 -171 -175 -22 -63 -22 -159 0 -221 27 -81 86 -129 272 -225 185 -96 207
-115 191 -172 -15 -54 -53 -71 -143 -66 -61 3 -72 7 -93 31 -13 16 -24 40 -24
55 0 101 -130 147 -196 69 -24 -29 -26 -37 -22 -98 9 -115 66 -196 176 -246
l52 -24 0 -56 c0 -71 22 -117 67 -138 89 -42 163 26 163 150 0 39 1 41 49 58
67 24 143 94 172 159 18 42 23 70 23 133 -1 154 -50 210 -287 330 -177 90
-197 106 -197 152 0 76 110 118 205 79 37 -16 50 -37 60 -98 13 -84 125 -120
186 -59 26 26 29 36 29 88 -1 67 -17 118 -55 173 -32 45 -101 95 -157 112
l-38 11 0 64 c0 35 -5 73 -10 84 -25 45 -115 64 -159 33z"/>
<path d="M480 1748 c-14 -7 -34 -31 -44 -52 -17 -36 -18 -43 -5 -80 22 -64 48
-73 244 -85 94 -6 256 -12 362 -14 l192 -2 29 28 c37 35 46 77 28 122 -26 62
-35 64 -332 75 -148 5 -309 12 -359 15 -65 5 -97 2 -115 -7z"/>
</g>
</svg>
