<?xml version="1.0" standalone="no"?>
<!DOCTYPE svg PUBLIC "-//W3C//DTD SVG 20010904//EN"
 "http://www.w3.org/TR/2001/REC-SVG-20010904/DTD/svg10.dtd">
<svg version="1.0" xmlns="http://www.w3.org/2000/svg"
 width="225.000000pt" height="225.000000pt" viewBox="0 0 225.000000 225.000000"
 preserveAspectRatio="xMidYMid meet">
<metadata>
Created by potrace 1.15, written by Peter Selinger 2001-2017
</metadata>
<g transform="translate(0.000000,225.000000) scale(0.100000,-0.100000)"
fill="rgb(125,215,175)" stroke="none">
<path d="M1089 2008 c-6 -7 -73 -134 -148 -283 l-136 -270 -332 -55 c-183 -30
-336 -60 -342 -65 -5 -6 -12 -21 -16 -34 -6 -20 20 -50 219 -250 l225 -226
-55 -329 c-30 -180 -52 -337 -48 -348 3 -10 17 -24 31 -29 23 -9 61 9 330 156
166 91 305 165 308 165 3 0 142 -74 308 -165 269 -147 307 -165 330 -156 14 5
28 19 31 29 4 11 -18 168 -48 348 l-55 329 225 226 c199 200 225 230 219 250
-4 13 -11 28 -16 34 -6 5 -159 35 -342 65 l-332 55 -136 270 c-75 149 -142
276 -148 283 -7 6 -23 12 -36 12 -13 0 -29 -6 -36 -12z m155 -404 c81 -162
125 -238 140 -245 17 -7 546 -99 573 -99 4 0 -79 -87 -185 -193 -162 -163
-192 -198 -192 -223 0 -16 20 -148 44 -294 24 -146 43 -267 41 -269 -3 -2
-121 60 -264 138 -142 77 -267 141 -276 141 -9 0 -134 -64 -276 -141 -143 -78
-261 -140 -264 -138 -2 2 17 123 41 269 24 146 44 278 44 294 0 25 -30 60
-192 223 -106 106 -189 193 -185 193 27 0 556 92 573 99 15 7 59 83 140 245
64 130 118 236 119 236 1 0 55 -106 119 -236z"/>
</g>
</svg>
