<?xml version="1.0" standalone="no"?>
<!DOCTYPE svg PUBLIC "-//W3C//DTD SVG 20010904//EN"
 "http://www.w3.org/TR/2001/REC-SVG-20010904/DTD/svg10.dtd">
<svg version="1.0" xmlns="http://www.w3.org/2000/svg"
 width="225.000000pt" height="225.000000pt" viewBox="0 0 225.000000 225.000000"
 preserveAspectRatio="xMidYMid meet">
<metadata>
Created by potrace 1.15, written by Peter Selinger 2001-2017
</metadata>
<g transform="translate(0.000000,225.000000) scale(0.100000,-0.100000)"
fill="#000000" stroke="none">
<path fill="#FFFFFF" d="M1026 2209 c-68 -103 -93 -245 -61 -354 31 -109 83 -192 177 -286
l88 -87 -7 -106 c-3 -58 -9 -106 -12 -106 -3 1 -21 34 -40 75 -115 252 -338
355 -592 276 l-66 -21 9 -55 c35 -228 197 -364 470 -395 50 -6 118 -8 150 -4
l58 7 -6 -34 c-14 -74 -62 -256 -78 -293 l-16 -38 -43 59 c-124 167 -301 242
-512 215 -116 -15 -255 -57 -255 -78 0 -24 65 -145 113 -210 74 -100 159 -159
274 -189 78 -20 152 -19 252 5 46 11 85 19 87 17 8 -8 -107 -169 -166 -230
-150 -160 -310 -246 -490 -263 -93 -8 -110 -17 -110 -54 0 -51 23 -63 109 -56
109 10 183 31 286 81 171 83 329 235 442 428 41 68 63 96 73 93 8 -3 54 -21
101 -40 105 -44 167 -56 280 -57 186 -1 328 92 425 277 l39 75 -29 24 c-72 58
-208 105 -306 105 -70 0 -188 -32 -262 -72 -31 -16 -87 -55 -124 -86 -37 -30
-64 -48 -61 -38 19 49 50 164 66 242 l18 89 109 -3 c184 -5 317 41 415 145 61
65 96 139 115 241 20 114 22 109 -43 123 -221 46 -404 -36 -555 -251 -18 -25
-18 -24 -15 55 3 58 11 100 32 155 27 69 29 86 30 210 0 126 -2 139 -27 192
-47 101 -148 191 -266 237 l-50 20 -26 -40z"/>
</g>
</svg>
