<?xml version="1.0" standalone="no"?>
<!DOCTYPE svg PUBLIC "-//W3C//DTD SVG 20010904//EN"
 "http://www.w3.org/TR/2001/REC-SVG-20010904/DTD/svg10.dtd">
<svg version="1.0" xmlns="http://www.w3.org/2000/svg"
 width="512.000000pt" height="403.000000pt" viewBox="0 0 512.000000 403.000000"
 preserveAspectRatio="xMidYMid meet">
<metadata>
Created by potrace 1.15, written by Peter Selinger 2001-2017
</metadata>
<g transform="translate(0.000000,403.000000) scale(0.100000,-0.100000)"
fill="#fff" stroke="none">
<path d="M2795 4023 c-720 -58 -1205 -197 -1614 -460 -126 -82 -194 -136 -310
-248 -323 -312 -497 -683 -542 -1155 -11 -120 -7 -469 6 -490 3 -5 26 14 52
43 100 115 335 345 456 445 700 583 1607 939 2582 1012 83 7 167 10 189 8 36
-3 28 -7 -100 -57 -209 -81 -434 -181 -679 -301 -1354 -667 -2319 -1514 -2767
-2429 -89 -181 -89 -234 -1 -311 56 -49 137 -80 209 -80 88 0 105 16 181 165
138 272 357 609 520 802 l43 52 103 -35 c384 -131 727 -194 1049 -194 616 0
1043 227 1373 730 96 147 174 294 345 648 171 356 263 527 374 697 204 310
458 558 748 727 84 50 107 68 108 85 1 119 -749 293 -1478 343 -138 9 -746 12
-847 3z"/>
</g>
</svg>
