<?xml version="1.0" standalone="no"?>
<!DOCTYPE svg PUBLIC "-//W3C//DTD SVG 20010904//EN"
 "http://www.w3.org/TR/2001/REC-SVG-20010904/DTD/svg10.dtd">
<svg version="1.0" xmlns="http://www.w3.org/2000/svg"
 width="512.000000pt" height="512.000000pt" viewBox="0 0 512.000000 512.000000"
 preserveAspectRatio="xMidYMid meet">
<metadata>
Created by potrace 1.15, written by Peter Selinger 2001-2017
</metadata>
<g transform="translate(0.000000,512.000000) scale(0.100000,-0.100000)"
fill="#FFFFFF" stroke="none">
<path d="M2275 4465 c-512 -83 -952 -345 -1253 -748 -176 -235 -286 -479 -349
-776 -26 -118 -28 -141 -28 -381 0 -239 2 -263 27 -381 111 -516 390 -930 822
-1220 321 -216 666 -319 1067 -319 150 0 362 19 376 34 3 2 -2 15 -10 28 -45
71 -28 188 52 358 120 252 117 357 -12 433 -53 32 -94 76 -141 152 -20 33 -57
84 -81 113 -42 49 -45 57 -45 111 0 72 19 128 70 207 34 51 40 69 40 112 0 49
-2 53 -40 77 -46 29 -62 31 -95 9 -22 -14 -27 -14 -67 7 -78 40 -125 78 -152
124 -29 48 -51 65 -88 65 -33 0 -406 146 -448 175 -45 31 -68 71 -77 130 -5
37 -20 66 -66 129 -34 44 -68 101 -78 126 -16 43 -39 65 -39 38 0 -8 13 -55
29 -106 16 -51 28 -92 26 -92 -1 0 -18 24 -37 53 -24 35 -37 69 -41 104 -3 29
-20 85 -38 125 -69 162 -72 171 -72 243 0 59 7 87 42 172 22 55 41 112 41 125
0 12 4 30 10 38 8 12 11 12 28 -3 29 -26 34 -20 15 16 -14 24 -18 57 -19 132
-2 146 -2 152 -21 170 -22 23 -78 14 -162 -25 -35 -17 -66 -30 -69 -30 -28 0
293 226 363 256 52 21 82 18 204 -26 61 -22 121 -40 131 -40 24 0 26 22 5 40
-24 20 -8 30 48 30 33 0 62 -7 78 -18 126 -85 120 -82 188 -82 61 0 63 -1 48
-18 -10 -10 -17 -28 -17 -39 0 -13 -15 -28 -47 -46 -86 -48 -101 -70 -69 -96
37 -31 223 -141 237 -141 33 0 42 27 35 98 -12 125 -14 117 16 120 14 2 46 -7
70 -19 29 -15 61 -23 98 -24 49 0 63 -6 130 -52 102 -71 148 -113 132 -120 -7
-3 -32 -19 -55 -37 -54 -41 -56 -71 -7 -104 19 -13 35 -29 35 -35 0 -19 -67
-59 -79 -47 -16 16 -32 12 -66 -16 -20 -18 -30 -34 -28 -48 2 -15 -7 -27 -31
-41 -61 -36 -76 -66 -77 -156 l-1 -79 -62 -64 c-68 -72 -74 -94 -45 -179 27
-79 16 -89 -41 -36 -79 73 -106 84 -211 84 -84 0 -96 -3 -160 -35 -92 -47
-129 -99 -128 -178 0 -59 19 -108 57 -149 32 -36 90 -31 157 12 83 52 97 58
116 51 14 -5 15 -14 9 -49 -14 -85 -13 -87 28 -102 71 -25 95 -61 112 -167 12
-77 78 -122 198 -134 73 -7 86 -2 209 82 123 84 187 85 345 6 54 -28 146 -65
204 -82 57 -18 114 -42 126 -54 13 -12 27 -42 32 -71 13 -72 28 -80 174 -92
135 -12 200 -35 212 -74 13 -39 -5 -103 -59 -214 -91 -189 -204 -350 -287
-410 -26 -18 -74 -69 -107 -112 -33 -43 -77 -94 -98 -114 -55 -51 -185 -147
-290 -214 -111 -71 -146 -104 -191 -180 -20 -33 -43 -68 -51 -77 -19 -23 -13
-22 78 3 673 184 1195 713 1365 1383 40 156 55 290 55 476 0 400 -103 745
-319 1066 -289 431 -705 711 -1215 820 -106 23 -150 27 -351 30 -168 2 -254
-1 -320 -11z m534 -71 c69 -14 138 -32 155 -41 61 -30 106 -87 106 -133 0 -11
14 -48 30 -81 45 -88 27 -100 -69 -49 -31 17 -101 64 -156 105 -101 75 -151
98 -237 111 -64 9 -76 25 -48 64 22 31 50 48 80 49 8 1 71 -11 139 -25z m-157
-211 c86 -47 108 -67 108 -98 0 -30 -26 -39 -94 -31 -64 8 -86 20 -68 38 19
19 14 56 -10 72 -13 8 -51 19 -86 25 -68 11 -82 17 -82 33 0 8 25 9 81 5 68
-5 92 -13 151 -44z m144 -1432 c110 -53 132 -58 165 -40 20 10 79 3 79 -10 0
-4 -23 -15 -50 -25 -64 -23 -99 -17 -203 36 -65 32 -173 66 -222 68 -5 0 -1 8
10 16 34 26 104 12 221 -45z"/>
</g>
</svg>
