<?xml version="1.0" standalone="no"?>
<!DOCTYPE svg PUBLIC "-//W3C//DTD SVG 20010904//EN"
 "http://www.w3.org/TR/2001/REC-SVG-20010904/DTD/svg10.dtd">
<svg version="1.0" xmlns="http://www.w3.org/2000/svg"
 width="980.000000pt" height="854.000000pt" viewBox="0 0 980.000000 854.000000"
 preserveAspectRatio="xMidYMid meet">
<metadata>
Created by potrace 1.15, written by Peter Selinger 2001-2017
</metadata>
<g transform="translate(0.000000,854.000000) scale(0.100000,-0.100000)"
fill="#fff" stroke="none">
<path d="M7630 7710 l0 -830 -830 0 -830 0 0 -240 0 -240 830 0 830 0 0 -830
0 -830 255 0 255 0 0 830 0 830 830 0 830 0 0 240 0 240 -830 0 -830 0 0 830
0 830 -255 0 -255 0 0 -830z"/>
<path d="M2700 8520 c-91 -4 -203 -15 -250 -24 -953 -194 -1625 -702 -1860
-1405 -62 -186 -90 -392 -90 -671 0 -569 137 -938 469 -1270 264 -264 563
-413 981 -491 91 -17 172 -23 385 -28 l270 -6 5 -270 c6 -318 5 -312 114 -425
83 -86 124 -144 166 -232 34 -72 38 -113 13 -126 -26 -14 -145 -29 -443 -57
-323 -30 -502 -55 -725 -100 -600 -120 -1052 -336 -1346 -643 -205 -213 -305
-412 -360 -717 -30 -161 -33 -512 -6 -650 104 -538 479 -940 1107 -1188 189
-75 453 -145 680 -182 307 -49 913 -40 1400 21 479 60 953 242 1312 504 125
91 332 296 411 407 207 292 322 613 358 1008 35 390 -62 767 -287 1105 -137
208 -261 343 -569 620 -627 566 -740 693 -753 845 -12 154 68 262 448 605 178
160 319 301 402 400 171 205 290 462 333 715 71 430 30 999 -96 1301 -17 40
-52 103 -78 141 -63 89 -230 255 -332 329 -139 101 -137 99 -115 123 33 37
123 59 384 96 300 43 501 95 595 155 46 29 78 73 63 87 -4 4 -55 11 -114 15
-146 11 -2266 18 -2472 8z m10 -425 c178 -48 324 -134 477 -279 257 -243 473
-624 573 -1010 119 -464 52 -960 -177 -1305 -183 -275 -455 -415 -773 -398
-449 24 -867 384 -1105 952 -57 136 -107 298 -131 430 -16 82 -19 149 -19 375
0 247 2 287 23 388 52 259 158 472 306 616 121 118 287 219 412 251 92 23 293
14 414 -20z m404 -4920 c541 -76 991 -319 1241 -670 70 -98 106 -168 148 -288
31 -90 32 -96 31 -262 0 -156 -2 -177 -28 -260 -57 -189 -154 -349 -310 -512
-242 -254 -577 -441 -971 -543 -246 -64 -548 -93 -720 -71 -161 21 -429 79
-555 120 -300 99 -556 267 -740 485 -121 143 -191 277 -236 446 -27 98 -25
309 3 420 152 602 827 1077 1633 1150 121 11 373 4 504 -15z"/>
</g>
</svg>
