<?xml version="1.0" standalone="no"?>
<!DOCTYPE svg PUBLIC "-//W3C//DTD SVG 20010904//EN"
 "http://www.w3.org/TR/2001/REC-SVG-20010904/DTD/svg10.dtd">
<svg version="1.0" xmlns="http://www.w3.org/2000/svg"
 width="512.000000pt" height="512.000000pt" viewBox="0 0 512.000000 512.000000"
 preserveAspectRatio="xMidYMid meet">
<metadata>
Created by potrace 1.15, written by Peter Selinger 2001-2017
</metadata>
<g transform="translate(0.000000,512.000000) scale(0.100000,-0.100000)"
fill="#FFFFFF" stroke="none">
<path d="M2518 5101 c-60 -13 -103 -47 -328 -266 -160 -156 -404 -416 -500
-535 -25 -30 -52 -62 -60 -70 -8 -9 -42 -51 -75 -94 -33 -43 -88 -115 -122
-160 -35 -44 -66 -85 -70 -91 -54 -67 -301 -458 -383 -605 -31 -56 -150 -300
-150 -308 0 -6 -6 -23 -14 -39 -45 -95 -56 -120 -56 -133 0 -9 -7 -26 -16 -38
-8 -12 -22 -44 -30 -72 -8 -27 -21 -74 -29 -102 -8 -29 -22 -67 -30 -85 -8
-17 -15 -39 -15 -49 0 -10 -7 -44 -16 -76 -12 -41 -21 -57 -30 -54 -8 3 -14
-1 -14 -8 0 -8 6 -16 12 -18 13 -5 5 -69 -26 -203 -6 -30 -11 -156 -11 -315 0
-248 2 -270 23 -345 13 -44 27 -93 32 -110 48 -170 171 -402 291 -550 80 -98
238 -250 342 -328 48 -37 90 -67 93 -67 3 0 24 -13 47 -28 23 -15 67 -41 97
-56 70 -37 81 -46 73 -59 -4 -7 0 -8 12 -3 18 6 38 -1 117 -41 14 -7 31 -13
38 -13 7 0 26 -6 43 -14 149 -66 348 -110 614 -138 209 -21 215 -21 400 -4
189 17 260 29 408 67 95 25 280 87 323 108 72 35 90 41 105 35 11 -4 17 -1 17
9 0 8 28 29 63 47 34 18 81 46 104 62 23 15 44 28 47 28 3 0 45 30 93 67 159
120 343 312 438 457 51 79 165 305 165 329 0 10 7 31 15 46 8 16 19 46 24 67
5 22 18 75 30 119 18 70 21 109 21 322 0 134 -4 262 -10 285 -25 113 -33 157
-40 208 -8 63 -35 171 -60 245 -10 28 -31 91 -48 140 -40 120 -52 152 -75 205
-11 25 -26 59 -32 75 -23 54 -105 230 -115 245 -5 8 -23 42 -40 75 -17 33 -41
78 -55 100 -13 22 -40 67 -59 100 -40 67 -145 230 -192 296 -16 24 -48 69 -69
99 -21 30 -50 71 -64 91 -41 58 -199 257 -266 334 -107 125 -228 259 -254 285
-14 14 -48 50 -75 80 -92 101 -407 399 -450 424 -48 28 -144 40 -208 27z
m1286 -2938 c52 -151 60 -196 64 -353 3 -137 0 -167 -22 -256 -13 -56 -29
-110 -34 -120 -6 -10 -26 -53 -46 -94 -53 -113 -97 -175 -201 -286 -203 -219
-498 -362 -810 -394 -60 -6 -121 -13 -135 -15 -13 -2 -85 3 -160 11 -125 13
-175 23 -305 59 -27 8 -60 17 -73 21 -43 11 -22 38 43 53 79 17 282 79 320 96
17 7 75 33 130 56 281 120 578 339 785 579 36 41 67 77 70 80 14 13 132 185
137 199 4 9 12 23 19 31 19 23 104 194 104 211 0 8 7 23 15 33 8 11 15 27 15
35 1 29 39 101 53 101 8 0 22 -21 31 -47z"/>
</g>
</svg>
