<?xml version="1.0" standalone="no"?>
<!DOCTYPE svg PUBLIC "-//W3C//DTD SVG 20010904//EN"
 "http://www.w3.org/TR/2001/REC-SVG-20010904/DTD/svg10.dtd">
<svg version="1.0" xmlns="http://www.w3.org/2000/svg"
 width="225.000000pt" height="225.000000pt" viewBox="0 0 225.000000 225.000000"
 preserveAspectRatio="xMidYMid meet">
<metadata>
Created by potrace 1.15, written by Peter Selinger 2001-2017
</metadata>
<g transform="translate(0.000000,225.000000) scale(0.100000,-0.100000)"
fill="rgb(0,200,150)" stroke="none">
<path d="M1395 2235 c-235 -44 -440 -209 -533 -432 -78 -184 -69 -413 24 -602
l36 -73 -48 -49 c-27 -27 -55 -49 -64 -49 -19 0 -810 -790 -810 -809 0 -18
187 -209 213 -217 16 -5 96 70 418 392 220 220 399 406 399 414 0 9 22 37 49
64 l48 48 84 -41 c109 -52 191 -71 315 -71 333 0 615 217 701 540 21 80 23
261 4 340 -93 379 -456 616 -836 545z m263 -71 c250 -50 456 -256 506 -506 30
-149 14 -278 -53 -413 -115 -232 -327 -364 -583 -365 -118 0 -176 14 -287 67
-172 82 -299 241 -347 433 -24 96 -16 261 19 358 110 314 422 492 745 426z
m-633 -1244 l-45 -45 -52 52 -52 53 44 45 44 45 53 -52 53 -53 -45 -45z m-145
-45 l65 -65 -363 -363 -362 -362 -67 68 -68 67 360 360 c198 198 362 360 365
360 3 0 35 -29 70 -65z"/>
<path d="M1375 2036 c-155 -49 -294 -182 -344 -328 -29 -84 -32 -115 -15 -133
24 -24 50 -3 63 52 43 171 181 311 344 348 53 12 74 31 64 59 -8 19 -54 20
-112 2z"/>
<path d="M1577 2043 c-4 -3 -7 -17 -7 -29 0 -18 7 -25 28 -30 62 -14 100 -28
165 -62 62 -34 68 -35 83 -20 9 9 14 24 11 32 -20 50 -250 140 -280 109z"/>
<path d="M1150 1195 c-18 -22 7 -55 80 -103 85 -57 160 -83 257 -89 145 -10
279 32 377 118 82 73 40 124 -44 54 -169 -141 -414 -141 -587 1 -45 37 -64 42
-83 19z"/>
</g>
</svg>
