<?xml version="1.0" standalone="no"?>
<!DOCTYPE svg PUBLIC "-//W3C//DTD SVG 20010904//EN"
 "http://www.w3.org/TR/2001/REC-SVG-20010904/DTD/svg10.dtd">
<svg version="1.0" xmlns="http://www.w3.org/2000/svg"
 width="500.000000pt" height="500.000000pt" viewBox="0 0 500.000000 500.000000"
 preserveAspectRatio="xMidYMid meet">
<metadata>
Created by potrace 1.15, written by Peter Selinger 2001-2017
</metadata>
<g transform="translate(0.000000,500.000000) scale(0.100000,-0.100000)"
fill="rgb(100,200,225)" stroke="none">
<path d="M2715 4139 c-295 -45 -550 -179 -754 -395 -74 -78 -193 -242 -222
-306 -7 -16 -16 -28 -20 -28 -4 0 -34 15 -66 34 -112 66 -171 81 -328 80 -125
0 -148 -3 -213 -26 -109 -39 -177 -84 -268 -174 -66 -66 -90 -98 -128 -175
-42 -85 -75 -198 -76 -257 0 -17 -9 -26 -32 -34 -155 -54 -344 -205 -447 -357
-122 -179 -166 -340 -158 -573 5 -148 16 -206 64 -327 120 -306 411 -540 733
-590 56 -9 516 -11 1780 -9 1927 4 1734 -5 1925 88 177 85 319 227 406 405 72
149 92 245 87 425 -4 123 -9 158 -32 230 -76 233 -229 411 -451 523 -77 38
-177 72 -247 82 l-45 7 -6 126 c-15 336 -136 615 -368 857 -192 199 -410 321
-684 381 -84 19 -364 27 -450 13z m458 -233 c507 -132 860 -605 833 -1116 -3
-63 -9 -136 -12 -161 l-6 -46 113 -6 c140 -8 209 -25 319 -79 68 -33 102 -59
171 -127 147 -148 206 -300 197 -514 -8 -185 -65 -314 -198 -447 -123 -123
-246 -181 -426 -200 -67 -8 -621 -10 -1704 -8 -1799 4 -1643 -3 -1815 78 -162
75 -282 194 -360 355 -57 120 -75 197 -75 330 0 133 18 211 75 330 97 201 261
339 482 405 l73 22 0 82 c0 149 50 276 148 374 94 94 211 141 347 142 147 0
252 -48 379 -173 49 -48 90 -86 91 -85 1 2 14 39 29 83 65 187 143 319 261
444 165 175 378 292 612 336 121 23 341 14 466 -19z"/>
</g>
</svg>
