<?xml version="1.0" standalone="no"?>
<!DOCTYPE svg PUBLIC "-//W3C//DTD SVG 20010904//EN"
 "http://www.w3.org/TR/2001/REC-SVG-20010904/DTD/svg10.dtd">
<svg version="1.0" xmlns="http://www.w3.org/2000/svg"
 width="128.000000pt" height="128.000000pt" viewBox="0 0 128.000000 128.000000"
 preserveAspectRatio="xMidYMid meet">
<metadata>
Created by potrace 1.15, written by Peter Selinger 2001-2017
</metadata>
<g transform="translate(0.000000,128.000000) scale(0.100000,-0.100000)"
fill="darkgray" stroke="none">
<path d="M514 1256 c-102 -48 -154 -148 -154 -299 0 -178 63 -306 172 -351 43
-19 146 -21 203 -5 57 16 126 89 155 164 20 50 24 79 24 175 1 137 -13 193
-62 251 -52 61 -119 89 -212 89 -58 0 -87 -6 -126 -24z m242 -92 c53 -43 73
-88 80 -180 15 -184 -66 -314 -194 -314 -118 0 -186 84 -199 245 -8 96 11 177
50 222 44 50 80 64 159 60 57 -2 72 -7 104 -33z"/>
<path d="M375 559 c-38 -21 -98 -48 -133 -60 -79 -26 -117 -64 -138 -136 -21
-74 -16 -204 10 -232 22 -25 141 -75 244 -103 67 -19 104 -22 282 -22 226 0
277 9 433 74 101 42 109 53 115 148 8 149 -36 234 -140 267 -29 10 -92 38
-139 62 -73 38 -90 43 -108 34 -25 -14 -27 -43 -6 -65 18 -18 158 -86 228
-111 63 -22 81 -56 82 -153 0 -84 4 -79 -107 -122 -206 -80 -510 -80 -716 0
-111 43 -107 38 -107 122 1 97 19 131 82 153 27 9 90 37 141 62 72 36 94 51
99 71 4 18 1 29 -12 39 -26 18 -30 17 -110 -28z"/>
</g>
</svg>
