<?xml version="1.0" standalone="no"?>
<!DOCTYPE svg PUBLIC "-//W3C//DTD SVG 20010904//EN"
 "http://www.w3.org/TR/2001/REC-SVG-20010904/DTD/svg10.dtd">
<svg version="1.0" xmlns="http://www.w3.org/2000/svg"
 width="200.000000pt" height="200.000000pt" viewBox="0 0 200.000000 200.000000"
 preserveAspectRatio="xMidYMid meet">
<metadata>
Created by potrace 1.15, written by Peter Selinger 2001-2017
</metadata>
<g transform="translate(0.000000,200.000000) scale(0.100000,-0.100000)"
fill="#fff" stroke="none">
<path d="M800 1985 c-318 -63 -616 -311 -730 -607 -55 -142 -73 -251 -67 -418
5 -162 19 -228 77 -361 49 -116 119 -218 213 -312 45 -45 72 -79 65 -81 -7 -3
-32 -7 -56 -9 -74 -9 -105 -57 -78 -122 25 -58 42 -61 243 -36 150 18 181 25
200 43 28 27 29 64 5 270 -20 170 -30 188 -97 188 -28 0 -48 -7 -64 -21 -21
-20 -23 -29 -19 -99 l3 -78 -45 41 c-130 120 -210 253 -257 428 -24 90 -23
281 1 374 72 270 258 484 509 585 79 31 220 60 297 60 67 0 100 27 100 84 0
32 -6 48 -23 64 -21 20 -34 22 -118 21 -52 0 -123 -7 -159 -14z"/>
<path d="M1558 1940 c-178 -23 -185 -25 -203 -59 -13 -26 -12 -46 6 -192 25
-204 25 -204 51 -229 21 -20 70 -26 103 -14 28 11 45 59 39 108 -5 31 -3 46 4
46 22 0 133 -147 177 -235 65 -130 87 -223 87 -370 0 -173 -43 -319 -133 -452
-155 -227 -379 -354 -668 -379 -71 -6 -89 -11 -109 -31 -20 -20 -24 -31 -19
-64 9 -67 14 -69 156 -69 149 0 239 20 368 80 114 53 185 102 281 195 136 129
222 276 274 466 20 73 23 107 23 259 0 151 -3 187 -23 260 -47 170 -134 322
-256 447 l-71 71 64 6 c81 7 111 31 111 88 0 28 -7 46 -25 63 -29 30 -42 30
-237 5z"/>
</g>
</svg>
