<?xml version="1.0" standalone="no"?>
<!DOCTYPE svg PUBLIC "-//W3C//DTD SVG 20010904//EN"
 "http://www.w3.org/TR/2001/REC-SVG-20010904/DTD/svg10.dtd">
<svg version="1.0" xmlns="http://www.w3.org/2000/svg"
 width="225.000000pt" height="225.000000pt" viewBox="0 0 225.000000 225.000000"
 preserveAspectRatio="xMidYMid meet">
<metadata>
Created by potrace 1.15, written by Peter Selinger 2001-2017
</metadata>
<g transform="translate(0.000000,225.000000) scale(0.100000,-0.100000)"
fill="#fff" stroke="none">
<path d="M535 2161 c-145 -24 -270 -86 -366 -181 -177 -177 -218 -452 -97
-648 20 -32 22 -49 23 -196 1 -144 4 -170 29 -251 95 -312 323 -551 632 -661
138 -50 244 -66 409 -62 128 2 144 0 183 -20 119 -63 324 -75 467 -29 110 36
196 90 272 171 165 175 206 417 107 626 l-36 75 -2 165 c-1 162 -2 167 -37
268 -51 144 -116 248 -224 357 -130 132 -255 208 -430 264 -125 40 -224 53
-384 50 -122 -3 -140 -1 -177 18 -88 47 -260 71 -369 54z m782 -427 c148 -33
277 -131 302 -229 14 -55 8 -80 -27 -117 -36 -39 -81 -52 -131 -38 -40 11 -59
28 -133 130 -51 68 -86 84 -199 88 -167 7 -264 -40 -264 -128 0 -76 47 -100
331 -166 297 -69 404 -125 461 -241 38 -79 39 -192 1 -274 -49 -108 -145 -185
-283 -229 -96 -31 -326 -39 -434 -16 -85 18 -186 62 -241 106 -54 43 -116 140
-131 203 -10 47 -9 59 6 91 21 45 59 66 117 66 65 0 102 -28 142 -108 44 -87
77 -127 130 -155 35 -19 57 -22 157 -22 109 0 119 2 174 30 81 42 108 82 102
155 -4 48 -8 58 -45 90 -45 41 -84 54 -297 101 -257 57 -367 112 -430 213 -27
45 -30 57 -30 135 0 75 3 92 27 132 67 114 204 182 396 198 107 9 217 3 299
-15z"/>
</g>
</svg>
