<?xml version="1.0" standalone="no"?>
<!DOCTYPE svg PUBLIC "-//W3C//DTD SVG 20010904//EN"
 "http://www.w3.org/TR/2001/REC-SVG-20010904/DTD/svg10.dtd">
<svg version="1.0" xmlns="http://www.w3.org/2000/svg"
 width="225.000000pt" height="225.000000pt" viewBox="0 0 225.000000 225.000000"
 preserveAspectRatio="xMidYMid meet">
<metadata>
Created by potrace 1.15, written by Peter Selinger 2001-2017
</metadata>
<g transform="translate(0.000000,225.000000) scale(0.100000,-0.100000)"
fill="#fff" stroke="none">
<path d="M1510 2240 c-187 -34 -321 -156 -387 -355 -25 -74 -27 -92 -27 -235
1 -187 19 -264 93 -416 59 -118 147 -221 247 -285 l63 -41 -26 -47 c-115 -203
-204 -330 -310 -445 l-52 -57 -76 102 c-258 346 -418 776 -492 1320 l-17 129
-188 0 c-146 0 -188 -3 -188 -13 0 -7 11 -82 25 -167 117 -715 342 -1250 659
-1565 69 -68 130 -120 161 -135 61 -30 134 -33 188 -6 95 47 307 266 447 464
55 77 192 303 202 333 2 5 48 13 103 19 55 6 115 13 133 16 l32 6 0 134 0 134
-27 -7 c-16 -5 -77 -8 -138 -7 -126 1 -189 19 -280 80 -140 92 -223 283 -212
484 7 144 63 230 148 230 56 0 90 -21 119 -72 23 -40 25 -52 25 -173 -1 -88
-6 -148 -17 -188 l-16 -57 31 -32 c58 -58 173 -90 261 -74 35 7 36 9 60 89 33
107 46 192 46 299 0 299 -125 482 -365 533 -75 16 -153 17 -225 5z"/>
</g>
</svg>
